<svg width="106" height="56" viewBox="0 0 106 56" fill="none" xmlns="http://www.w3.org/2000/svg">
    <path fill-rule="evenodd" clip-rule="evenodd" d="M27.0182 32.7277V50.1187C27.0182 52.8629 24.7936 55.0876 22.0494 55.0876H16.3586C14.7931 55.0876 13.3191 54.3497 12.3809 53.0965L0.991107 37.8818C0.347719 37.0223 0 35.9776 0 34.904V32.7277C0 29.9834 2.22464 27.7588 4.96887 27.7588H21.2212H22.0494H27.0182V32.7124C27.0182 32.7175 27.0182 32.7226 27.0182 32.7277Z" fill="black" />
    <path d="M13.4671 10.4702L45.5054 51.7172C46.4467 52.929 47.8951 53.638 49.4296 53.638H54.9683C57.7125 53.638 59.9372 51.4133 59.9372 48.6691V28.9419C59.9372 27.8393 59.5704 26.768 58.8946 25.8967L41.036 2.8709C40.0949 1.65738 38.6454 0.947266 37.1097 0.947266H17.3912C14.647 0.947266 12.4224 3.1719 12.4224 5.91613V7.42213C12.4224 8.52599 12.7899 9.59842 13.4671 10.4702Z" fill="black" />
    <path d="M59.2124 25.7288V7.25218C59.2124 5.77917 59.6821 4.34453 60.5531 3.15668C61.8577 1.37769 63.9318 0.32666 66.1379 0.32666H68.652C70.8567 0.32666 72.934 1.35958 74.2646 3.11745L104.576 43.1618C105.502 44.3847 106.003 45.8765 106.003 47.4102V47.6305C106.003 49.297 105.375 50.9023 104.245 52.1269C102.99 53.4864 101.224 54.2596 99.3735 54.2596H83.2232C81.0691 54.2596 79.0337 53.2733 77.6987 51.5829L60.7272 30.0913C59.7461 28.8488 59.2124 27.3119 59.2124 25.7288Z" fill="black" />
</svg>