<svg width="336" height="311" viewBox="0 0 336 311" fill="none" xmlns="http://www.w3.org/2000/svg">
<path d="M20.2912 417.307C7.08081 455.95 -19.2868 548.206 -45.2816 639.277H-47.5188C-21.4708 547.98 5.05658 455.328 18.267 416.516C22.6349 403.804 27.5356 389.398 25.8843 375.048C23.3275 353.128 6.28174 336.349 -11.0303 321.039C-57.5864 279.91 -359.296 22.2356 -606.832 -188.944H-603.422C-356.259 21.8966 -56.095 278.272 -9.64539 319.344C7.98627 334.937 25.4049 351.998 28.0151 374.766C29.7196 389.624 24.7125 404.313 20.2912 417.25V417.307Z" fill="url(#paint0_linear_1541_2181)"/>
<path d="M50.1212 404.934C36.4846 444.876 8.78528 541.992 -18.0618 635.943C-18.3813 637.073 -18.701 638.147 -19.0206 639.277H-21.2578C-20.8849 637.921 -20.5121 636.621 -20.1392 635.265C6.65454 541.314 34.407 444.086 48.0436 404.143C52.4116 391.432 57.3123 377.026 55.6609 362.676C53.1041 340.756 36.0583 323.977 18.7463 308.666C-26.851 268.329 -317.853 19.8063 -562.513 -188.944H-559.104C-314.817 19.4673 -25.3595 266.747 20.1845 306.972C37.8162 322.564 55.2349 339.626 57.845 362.393C59.5496 377.252 54.5424 391.94 50.1212 404.878V404.934Z" fill="url(#paint1_linear_1541_2181)"/>
<path d="M79.8984 392.562C66.2618 432.448 38.5626 529.619 11.7155 623.571C10.224 628.768 8.73248 634.023 7.24103 639.277H5.00372C6.54846 633.797 8.09326 628.373 9.69128 622.949C36.485 528.941 64.2376 431.77 77.8742 391.827C82.1889 379.116 87.1428 364.71 85.4915 350.36C82.9347 328.44 65.8889 311.661 48.5768 296.35C3.83185 256.747 -276.624 17.151 -518.193 -188.944H-514.784C-273.694 16.7556 5.37659 255.165 50.0151 294.599C67.6467 310.192 85.0654 327.31 87.6755 350.021C89.3801 364.879 84.3729 379.568 79.9517 392.505L79.8984 392.562Z" fill="url(#paint2_linear_1541_2181)"/>
<path d="M109.728 380.189C96.0914 420.132 68.392 517.247 41.545 611.198C38.8816 620.52 36.2182 629.898 33.5548 639.277H31.3175C34.0342 629.729 36.8041 620.125 39.5208 610.577C66.3146 516.625 94.0671 419.397 107.704 379.455C112.018 366.744 116.972 352.337 115.321 337.987C112.764 316.067 95.7184 299.288 78.4064 284.035C34.5669 245.166 -235.714 14.2698 -473.875 -188.944H-470.466C-232.838 13.8178 36.0583 243.584 79.7913 282.227C97.4229 297.819 114.842 314.881 117.452 337.648C119.156 352.507 114.149 367.195 109.728 380.133V380.189Z" fill="url(#paint3_linear_1541_2181)"/>
<path d="M139.558 367.817C125.922 407.703 98.2224 504.874 71.3754 598.826C67.5401 612.328 63.6516 625.831 59.8163 639.277H57.579C61.4676 625.605 65.4094 611.876 69.298 598.205C96.0917 504.196 123.844 407.025 137.481 367.083C141.796 354.371 146.749 339.965 145.098 325.615C142.541 303.695 125.442 286.916 108.184 271.606C65.2496 233.584 -195.07 11.1625 -429.556 -188.944H-426.147C-192.194 10.7106 66.7943 232.002 109.622 269.854C127.253 285.447 144.672 302.565 147.282 325.276C148.987 340.134 143.98 354.823 139.558 367.76V367.817Z" fill="url(#paint4_linear_1541_2181)"/>
<path d="M169.388 355.445C155.752 395.387 128.052 492.502 101.205 586.454C96.1983 604.08 91.1378 621.82 86.1306 639.277H83.8934C88.9539 621.594 94.0676 603.628 99.1813 585.832C125.975 491.88 153.728 394.652 167.364 354.71C171.679 341.999 176.633 327.592 174.982 313.243C172.425 291.322 155.326 274.543 138.067 259.233C95.9852 222.003 -154.64 7.8293 -385.237 -188.944H-381.828C-151.764 7.37735 97.4767 220.364 139.452 257.482C157.083 273.074 174.502 290.136 177.112 312.904C178.817 327.762 173.81 342.451 169.388 355.388V355.445Z" fill="url(#paint5_linear_1541_2181)"/>
<path d="M199.218 343.072C185.582 383.014 157.882 480.129 131.089 574.081C124.856 595.888 118.571 617.865 112.445 639.277H110.208C116.387 617.695 122.726 595.436 129.011 573.46C155.805 479.508 183.557 382.28 197.194 342.338C201.509 329.626 206.463 315.22 204.811 300.87C202.254 278.95 185.155 262.171 167.897 246.861C126.667 210.421 -114.423 4.3831 -340.918 -188.944H-337.509C-111.6 3.87463 128.159 208.783 169.282 245.109C186.913 260.702 204.332 277.764 206.942 300.531C208.647 315.389 203.639 330.078 199.218 343.016V343.072Z" fill="url(#paint6_linear_1541_2181)"/>
<path d="M228.995 330.7C215.358 370.585 187.659 467.757 160.865 561.709C153.408 587.753 145.95 614.023 138.706 639.277H136.468C143.766 613.854 151.33 587.301 158.841 561.087C185.635 467.079 213.387 369.907 227.024 329.965C231.392 317.254 236.292 302.847 234.641 288.498C232.084 266.577 214.985 249.798 197.726 234.488C157.403 198.84 -74.4193 0.710922 -296.6 -188.944H-293.19C-71.5961 0.145966 158.894 197.201 199.111 232.737C216.743 248.33 234.162 265.448 236.772 288.159C238.476 303.017 233.469 317.706 229.048 330.643L228.995 330.7Z" fill="url(#paint7_linear_1541_2181)"/>
<path d="M258.825 318.327C245.188 358.213 217.489 455.385 190.695 549.336C182.066 579.674 173.277 610.294 164.967 639.277H162.73C171.146 610.125 179.935 579.222 188.671 548.658C215.465 454.707 243.218 357.535 256.854 317.536C261.222 304.825 266.123 290.418 264.471 276.069C261.915 254.149 244.869 237.369 227.557 222.116C188.085 187.202 -34.5744 -3.13077 -252.28 -188.944H-248.871C-31.8046 -3.69572 189.577 185.62 228.942 220.421C246.573 236.014 263.992 253.075 266.602 275.843C268.307 290.701 263.3 305.39 258.878 318.327H258.825Z" fill="url(#paint8_linear_1541_2181)"/>
<path d="M288.655 305.955C275.018 345.84 247.319 443.012 220.525 536.964C210.618 571.652 200.603 606.735 191.228 639.277H188.991C198.419 606.566 208.54 571.256 218.501 536.342C245.295 442.391 273.048 345.162 286.684 305.22C291.052 292.509 295.953 278.103 294.301 263.753C291.745 241.833 274.699 225.053 257.387 209.743C218.821 175.62 5.05684 -7.14194 -207.961 -188.944H-204.552C7.77348 -7.70689 220.259 173.982 258.772 207.992C276.403 223.585 293.822 240.703 296.432 263.414C298.137 278.272 293.13 292.961 288.708 305.898L288.655 305.955Z" fill="url(#paint9_linear_1541_2181)"/>
<path d="M318.485 293.582C304.848 333.524 277.149 430.64 250.355 524.591C239.222 563.686 227.876 603.402 217.489 639.277H215.252C225.692 603.233 237.092 563.347 248.331 523.97C275.125 430.018 302.878 332.79 316.514 292.848C320.882 280.136 325.783 265.73 324.131 251.38C321.575 229.46 304.529 212.681 287.217 197.371C249.503 164.039 44.475 -11.3226 -163.643 -188.944H-160.233C47.1917 -11.8875 250.995 162.4 288.602 195.676C306.233 211.269 323.652 228.33 326.262 251.098C327.967 265.956 322.96 280.645 318.538 293.582H318.485Z" fill="url(#paint10_linear_1541_2181)"/>
<path d="M348.315 281.21C334.678 321.152 306.979 418.267 280.132 512.219C267.667 555.89 254.989 600.238 243.643 639.277H241.406C252.805 600.125 265.536 555.494 278.054 511.597C304.848 417.589 332.601 320.417 346.237 280.475C350.605 267.764 355.506 253.358 353.854 239.008C351.298 217.088 334.252 200.309 316.94 184.998C280.078 152.401 83.6265 -15.6162 -119.431 -188.944H-116.022C86.2899 -16.2377 281.57 150.819 318.272 183.304C335.903 198.896 353.322 215.958 355.932 238.725C357.636 253.584 352.629 268.272 348.208 281.21H348.315Z" fill="url(#paint11_linear_1541_2181)"/>
<path d="M378.091 268.837C364.455 308.779 336.755 405.895 309.908 499.846C296.112 548.206 282.049 597.414 269.851 639.277H267.614C279.919 597.301 294.035 547.811 307.884 499.225C334.678 405.273 362.431 308.045 376.067 268.103C380.435 255.391 385.336 240.985 383.684 226.635C381.128 204.715 364.082 187.936 346.77 172.626C310.814 140.819 122.725 -20.0793 -75.1118 -188.944H-71.7027C125.388 -20.7008 312.305 139.181 348.101 170.931C365.733 186.524 383.152 203.642 385.762 226.353C387.466 241.211 382.459 255.9 378.038 268.837H378.091Z" fill="url(#paint12_linear_1541_2181)"/>
<path d="M407.922 256.465C394.285 296.407 366.586 393.522 339.792 487.474C324.611 540.692 309.11 594.928 296.059 639.277H293.822C306.926 594.871 322.48 540.353 337.715 486.852C364.508 392.901 392.261 295.673 405.898 255.73C410.266 243.019 415.166 228.613 413.515 214.263C410.958 192.343 393.912 175.564 376.6 160.253C341.497 129.238 161.664 -24.6555 -30.7925 -188.944H-27.3833C164.274 -25.2769 342.988 127.599 377.932 158.559C395.564 174.151 412.982 191.213 415.592 213.98C417.297 228.839 412.29 243.527 407.868 256.465H407.922Z" fill="url(#paint13_linear_1541_2181)"/>
<path d="M443.025 190.761V199.518C439.563 178.727 423.103 162.626 406.43 147.881C372.232 117.656 200.443 -29.3445 13.5264 -188.944H16.9355C203.053 -30.0225 373.724 116.018 407.815 146.186C422.517 159.18 437.113 173.247 443.025 190.817V190.761Z" fill="url(#paint14_linear_1541_2181)"/>
<path d="M443.025 216.636V227.257C441.533 233.076 439.562 238.725 437.751 244.092C424.115 283.978 396.415 381.15 369.622 475.101C353.002 533.405 336.01 592.894 322.267 639.277H320.029C333.826 592.838 350.871 533.066 367.597 474.48C394.391 380.472 422.144 283.3 435.78 243.358C438.604 234.997 441.746 225.957 443.025 216.636Z" fill="url(#paint15_linear_1541_2181)"/>
<path d="M443.025 138.616V141.61C440.788 139.52 438.551 137.542 436.26 135.509C402.968 106.075 239.063 -34.2032 57.8452 -188.944H61.2544C241.673 -34.8811 404.406 104.436 437.592 133.814C439.403 135.396 441.214 137.034 442.972 138.672L443.025 138.616Z" fill="url(#paint16_linear_1541_2181)"/>
<path d="M443.025 100.143V103.08C385.656 53.421 250.835 -61.9423 102.164 -188.944H105.573C252.273 -63.6372 385.176 50.0878 443.025 100.143Z" fill="url(#paint17_linear_1541_2181)"/>
<path d="M443.025 62.0649V65.0026C378.464 9.41132 267.827 -85.2182 146.482 -188.887H149.892C269.584 -86.6306 378.624 6.64305 443.025 62.1214V62.0649Z" fill="url(#paint18_linear_1541_2181)"/>
<path d="M443.025 24.0434V26.9247C380.063 -27.1412 289.507 -104.596 190.802 -188.944H194.211C291.425 -105.896 380.595 -29.627 443.078 24.0434H443.025Z" fill="url(#paint19_linear_1541_2181)"/>
<defs>
<linearGradient id="paint0_linear_1541_2181" x1="-232.601" y1="171.994" x2="157.764" y2="-180.743" gradientUnits="userSpaceOnUse">
<stop stop-color="white" stop-opacity="0"/>
<stop offset="0.646172" stop-color="white" stop-opacity="0.505"/>
<stop offset="1" stop-color="white" stop-opacity="0"/>
</linearGradient>
<linearGradient id="paint1_linear_1541_2181" x1="-196.819" y1="171.994" x2="192.535" y2="-171.804" gradientUnits="userSpaceOnUse">
<stop stop-color="white" stop-opacity="0"/>
<stop offset="0.646172" stop-color="white" stop-opacity="0.505"/>
<stop offset="1" stop-color="white" stop-opacity="0"/>
</linearGradient>
<linearGradient id="paint2_linear_1541_2181" x1="-161.036" y1="171.994" x2="227.075" y2="-162.707" gradientUnits="userSpaceOnUse">
<stop stop-color="white" stop-opacity="0"/>
<stop offset="0.646172" stop-color="white" stop-opacity="0.505"/>
<stop offset="1" stop-color="white" stop-opacity="0"/>
</linearGradient>
<linearGradient id="paint3_linear_1541_2181" x1="-125.285" y1="171.994" x2="261.331" y2="-153.42" gradientUnits="userSpaceOnUse">
<stop stop-color="white" stop-opacity="0"/>
<stop offset="0.646172" stop-color="white" stop-opacity="0.505"/>
<stop offset="1" stop-color="white" stop-opacity="0"/>
</linearGradient>
<linearGradient id="paint4_linear_1541_2181" x1="-89.5019" y1="171.994" x2="295.368" y2="-144.017" gradientUnits="userSpaceOnUse">
<stop stop-color="white" stop-opacity="0"/>
<stop offset="0.646172" stop-color="white" stop-opacity="0.505"/>
<stop offset="1" stop-color="white" stop-opacity="0"/>
</linearGradient>
<linearGradient id="paint5_linear_1541_2181" x1="-53.7194" y1="171.994" x2="329.132" y2="-134.469" gradientUnits="userSpaceOnUse">
<stop stop-color="white" stop-opacity="0"/>
<stop offset="0.646172" stop-color="white" stop-opacity="0.505"/>
<stop offset="1" stop-color="white" stop-opacity="0"/>
</linearGradient>
<linearGradient id="paint6_linear_1541_2181" x1="-17.9369" y1="171.994" x2="362.611" y2="-124.781" gradientUnits="userSpaceOnUse">
<stop stop-color="white" stop-opacity="0"/>
<stop offset="0.646172" stop-color="white" stop-opacity="0.505"/>
<stop offset="1" stop-color="white" stop-opacity="0"/>
</linearGradient>
<linearGradient id="paint7_linear_1541_2181" x1="17.8452" y1="171.994" x2="395.791" y2="-114.962" gradientUnits="userSpaceOnUse">
<stop stop-color="white" stop-opacity="0"/>
<stop offset="0.646172" stop-color="white" stop-opacity="0.505"/>
<stop offset="1" stop-color="white" stop-opacity="0"/>
</linearGradient>
<linearGradient id="paint8_linear_1541_2181" x1="53.6282" y1="171.994" x2="428.659" y2="-105.018" gradientUnits="userSpaceOnUse">
<stop stop-color="white" stop-opacity="0"/>
<stop offset="0.646172" stop-color="white" stop-opacity="0.505"/>
<stop offset="1" stop-color="white" stop-opacity="0"/>
</linearGradient>
<linearGradient id="paint9_linear_1541_2181" x1="89.4107" y1="171.994" x2="461.198" y2="-94.96" gradientUnits="userSpaceOnUse">
<stop stop-color="white" stop-opacity="0"/>
<stop offset="0.646172" stop-color="white" stop-opacity="0.505"/>
<stop offset="1" stop-color="white" stop-opacity="0"/>
</linearGradient>
<linearGradient id="paint10_linear_1541_2181" x1="125.193" y1="171.994" x2="493.396" y2="-84.7969" gradientUnits="userSpaceOnUse">
<stop stop-color="white" stop-opacity="0"/>
<stop offset="0.646172" stop-color="white" stop-opacity="0.505"/>
<stop offset="1" stop-color="white" stop-opacity="0"/>
</linearGradient>
<linearGradient id="paint11_linear_1541_2181" x1="160.837" y1="171.994" x2="525.085" y2="-74.5028" gradientUnits="userSpaceOnUse">
<stop stop-color="white" stop-opacity="0"/>
<stop offset="0.646172" stop-color="white" stop-opacity="0.505"/>
<stop offset="1" stop-color="white" stop-opacity="0"/>
</linearGradient>
<linearGradient id="paint12_linear_1541_2181" x1="196.62" y1="171.994" x2="556.555" y2="-64.1659" gradientUnits="userSpaceOnUse">
<stop stop-color="white" stop-opacity="0"/>
<stop offset="0.646172" stop-color="white" stop-opacity="0.505"/>
<stop offset="1" stop-color="white" stop-opacity="0"/>
</linearGradient>
<linearGradient id="paint13_linear_1541_2181" x1="232.403" y1="171.994" x2="587.642" y2="-53.7627" gradientUnits="userSpaceOnUse">
<stop stop-color="white" stop-opacity="0"/>
<stop offset="0.646172" stop-color="white" stop-opacity="0.505"/>
<stop offset="1" stop-color="white" stop-opacity="0"/>
</linearGradient>
<linearGradient id="paint14_linear_1541_2181" x1="266.572" y1="-19.6525" x2="444.355" y2="-251.247" gradientUnits="userSpaceOnUse">
<stop stop-color="white" stop-opacity="0"/>
<stop offset="0.646172" stop-color="white" stop-opacity="0.505"/>
<stop offset="1" stop-color="white" stop-opacity="0"/>
</linearGradient>
<linearGradient id="paint15_linear_1541_2181" x1="392.494" y1="400.822" x2="515.357" y2="358.695" gradientUnits="userSpaceOnUse">
<stop stop-color="white" stop-opacity="0"/>
<stop offset="0.646172" stop-color="white" stop-opacity="0.505"/>
<stop offset="1" stop-color="white" stop-opacity="0"/>
</linearGradient>
<linearGradient id="paint16_linear_1541_2181" x1="284.78" y1="-44.8887" x2="433.831" y2="-249.525" gradientUnits="userSpaceOnUse">
<stop stop-color="white" stop-opacity="0"/>
<stop offset="0.646172" stop-color="white" stop-opacity="0.505"/>
<stop offset="1" stop-color="white" stop-opacity="0"/>
</linearGradient>
<linearGradient id="paint17_linear_1541_2181" x1="302.987" y1="-61.6799" x2="434.597" y2="-242.676" gradientUnits="userSpaceOnUse">
<stop stop-color="white" stop-opacity="0"/>
<stop offset="0.646172" stop-color="white" stop-opacity="0.505"/>
<stop offset="1" stop-color="white" stop-opacity="0"/>
</linearGradient>
<linearGradient id="paint18_linear_1541_2181" x1="321.195" y1="-78.2421" x2="435.595" y2="-235.674" gradientUnits="userSpaceOnUse">
<stop stop-color="white" stop-opacity="0"/>
<stop offset="0.646172" stop-color="white" stop-opacity="0.505"/>
<stop offset="1" stop-color="white" stop-opacity="0"/>
</linearGradient>
<linearGradient id="paint19_linear_1541_2181" x1="339.434" y1="-94.8684" x2="436.685" y2="-228.776" gradientUnits="userSpaceOnUse">
<stop stop-color="white" stop-opacity="0"/>
<stop offset="0.646172" stop-color="white" stop-opacity="0.505"/>
<stop offset="1" stop-color="white" stop-opacity="0"/>
</linearGradient>
</defs>
</svg>
