<svg width="56" height="30" viewBox="0 0 56 30" fill="none" xmlns="http://www.w3.org/2000/svg">
<path fill-rule="evenodd" clip-rule="evenodd" d="M14.1996 17.5577V26.6976C14.1996 28.1399 13.0304 29.3091 11.5881 29.3091H8.59736C7.77457 29.3091 6.99991 28.9213 6.50683 28.2626L0.520882 20.2665C0.182746 19.8148 0 19.2657 0 18.7015V17.5577C0 16.1155 1.16917 14.9463 2.61141 14.9463H11.5881C11.5926 14.9463 11.5971 14.9463 11.6016 14.9463H14.1995V17.5522C14.1996 17.554 14.1996 17.5559 14.1996 17.5577Z" fill="black"/>
<path d="M7.07762 5.86029L23.9155 27.5378C24.4102 28.1747 25.1714 28.5473 25.9779 28.5473H28.8888C30.331 28.5473 31.5002 27.3782 31.5002 25.9359V15.5682C31.5002 14.9887 31.3074 14.4257 30.9523 13.9678L21.5666 1.86644C21.072 1.22867 20.3102 0.855469 19.5031 0.855469H9.13998C7.69773 0.855469 6.52856 2.02464 6.52856 3.46688V4.25836C6.52856 4.8385 6.72174 5.40212 7.07762 5.86029Z" fill="black"/>
<path d="M31.1193 13.8795V4.16904C31.1193 3.39489 31.3662 2.64091 31.824 2.01663C32.5096 1.08167 33.5997 0.529297 34.7591 0.529297H36.0804C37.239 0.529297 38.3308 1.07215 39.0301 1.99601L54.9604 23.0415C55.4468 23.6842 55.7101 24.4682 55.7101 25.2743V25.3901C55.7101 26.2659 55.3802 27.1096 54.7862 27.7531C54.1267 28.4676 53.1985 28.874 52.2262 28.874H43.7383C42.6062 28.874 41.5365 28.3557 40.8349 27.4672L31.9154 16.1722C31.3998 15.5193 31.1193 14.7115 31.1193 13.8795Z" fill="black"/>
</svg>
